<?xml version="1.0" standalone="no"?>
<svg viewBox="0 0 200 200" xmlns="http://www.w3.org/2000/svg">
  <path fill="#BE3D2A" d="M44.1,-74.7C53.7,-62.5,55.5,-44.4,62.4,-28.7C69.3,-13,81.3,0.2,81.2,12.8C81.1,25.3,68.9,37.2,57.7,50C46.6,62.8,36.6,76.6,22.8,83.3C9,89.9,-8.6,89.5,-24.1,84C-39.5,78.5,-52.9,68,-63.1,55.2C-73.3,42.5,-80.2,27.5,-82.4,11.9C-84.6,-3.8,-82.1,-20.1,-74.7,-33.3C-67.4,-46.6,-55.2,-56.8,-42,-67.3C-28.7,-77.8,-14.4,-88.6,1.5,-90.9C17.3,-93.2,34.6,-87,44.1,-74.7Z" transform="translate(100 100)" />
</svg>
